<svg xmlns="http://www.w3.org/2000/svg" viewBox="0 0 722.11 872"><defs><style>.cls-1{fill:#a72724;}.cls-1,.cls-2{fill-rule:evenodd;}.cls-2,.cls-3{fill:#ee7d00;}</style></defs><title>Ресурс 1</title><g id="Слой_2" data-name="Слой 2"><g id="Слой_1-2" data-name="Слой 1"><path class="cls-1" d="M654.74,807.27h62.12a5,5,0,0,1,5.25,4.85v54.64a5.26,5.26,0,0,1-5.25,5.25H583.43a5.27,5.27,0,0,1-5.25-5.25l-.09-137.54H89.87c-9.35,0-17-4.05-17-6.29L73,583.29H5.25A5.27,5.27,0,0,1,0,578V523.41a5.29,5.29,0,0,1,5.25-5.25H138.68c3.4,0,8.3,2.74,8.3,6.52v122.6H271.63V524A253.79,253.79,0,0,1,134.2,298.1l76-4.8c0,99.6,80.29,180.37,179.29,180.37S568.76,392.9,568.76,293.3A184.43,184.43,0,0,0,559.63,236l65.9-17.78A254.42,254.42,0,0,1,476.45,535V647.29H637.72c9.34,0,17,2.83,17,6.29Z"/><path class="cls-1" d="M433.78,322.52c15.47,13.74,19.57,48.69,16.52,72.43-4.87,38-36.77,65.19-71.22,60.78-33.22-4.26-55.22-32.67-60.27-69.36l-18.61,10.69s-4.08-2-1.69-9.38,20.24-11.39,8.35-16.29-16.4.31,3-15.54-3.41-7.19-6.48-9.51,12.81-6.08,21.61-14.59.68-9.07-2.16-9.44,18-13,47-16.71C373.79,304.92,410.21,300.42,433.78,322.52Z"/><path class="cls-2" d="M234.32,53.41l52.23-8,2,12.87-31.74,4.87L264,110.49l-20.48,3.14-9.23-60.22Zm62.35-9.55,19.09-2.93,1.36,8.84A26.78,26.78,0,0,1,326,40.86a34.46,34.46,0,0,1,13.64-5q13.47-2.06,24.11,4.73t12.91,21.48Q379,77.14,370.82,87T349.16,98.84a33,33,0,0,1-11.93-.19,40.64,40.64,0,0,1-12-5.13l4.65,30.36L309.41,127,296.67,43.86Zm24.72,26c1,6.76,3.52,11.51,7.46,14.2A17.91,17.91,0,0,0,342.2,87a16.88,16.88,0,0,0,11.18-6.27c2.7-3.45,3.54-8.57,2.51-15.33q-1.46-9.49-7.05-13.32A17.18,17.18,0,0,0,336,49.31a18,18,0,0,0-11.76,6.42Q320,61,321.39,69.84Zm66.72-10.06a27.58,27.58,0,0,1,2.67-16.14,31.93,31.93,0,0,1,12.51-13.51,52.63,52.63,0,0,1,20-7.08q17.53-2.69,30.13,4.48T468,48.25q2.09,13.64-7.84,24.38T433.06,86a56.09,56.09,0,0,1-20.86-.63Q402,83.08,395.84,76.63t-7.73-16.85Zm21.12-2.36q1.37,9,7.57,12.89a21.63,21.63,0,0,0,26.9-4.12q4.71-5.59,3.32-14.68c-.9-5.89-3.42-10.16-7.53-12.77a21.62,21.62,0,0,0-26.9,4.12c-3.17,3.73-4.28,8.6-3.36,14.56ZM479,15.92,497.76,13,505,60.39l23.74-3.64L521.51,9.41l18.86-2.89,7.26,47.35,23.67-3.63L564,2.89,582.91,0l9.23,60.22L488.19,76.15Z"/><circle class="cls-3" cx="627.3" cy="35.47" r="18.44"/><path class="cls-1" d="M31.56,291.44l49.09-63.18L21,186.36l39.62-6.06,38.84,28.33,27.84-38.54,39.31-6L122.1,222.7l65.62,44.83-40.91,6.27-42.75-30.35L72.23,285.21l-40.67,6.22Zm140.56-128.2,73.2,65.36q-3.34,9.52-8,13c-3.13,2.29-8.63,4-16.53,5.26q-5.8.89-13.07,1.7l2.4,15.65a178.1,178.1,0,0,0,23.65-2.38q15.26-2.33,23.84-10.53t15.9-22.48l44.59-87.9-35.4,5.42-25.15,59.25-47.47-48.13-37.94,5.8ZM388.9,236.75l-13.25-86.6-49.83,7.62-2.69-17.65L456.6,119.71l2.7,17.65L409.59,145l13.25,86.61-33.95,5.19ZM479,116.27,513,111.08l6.79,44.37q11.27-2.43,14.82-6c2.37-2.35,5.68-8.4,9.88-18.1q8-18.55,18-24.29t33.39-9.33c.79-.12,2.42-.4,4.92-.83l2.38,15.56-4.82.66c-6.92,1.06-11.92,2.38-15,3.93a17.94,17.94,0,0,0-7,6.06c-1.66,2.5-3.91,7.41-6.78,14.8A45.13,45.13,0,0,1,564.19,148q-3.08,4.16-11.74,8.78,11.62.27,20,5.16a116.36,116.36,0,0,1,18.8,14.59l27.29,25.08-39.85,6.1-24.19-23.88c-.37-.34-1.11-1-2.3-1.91-.41-.34-2.11-1.74-5-4.26-5.12-4.46-9.21-7.11-12.19-8s-7.34-.87-13.09,0l7,45.66L495,220.52,479,116.27Zm157.57,82.58-16-104.25,33.91-5.18,16,104.25Z"/></g></g></svg>